<?xml version="1.0" encoding="UTF-8"?>
<svg version="1.1" xmlns="http://www.w3.org/2000/svg" width="500" height="301">
<path d="M0 0 C165 0 330 0 500 0 C500 99.33 500 198.66 500 301 C335 301 170 301 0 301 C0 201.67 0 102.34 0 0 Z " fill="#050A30" transform="translate(0,0)"/>
<path d="M0 0 C2.97387106 1.15053865 5.5990411 2.43995402 8.35766602 4.0300293 C9.31084717 4.57506104 10.26402832 5.12009277 11.24609375 5.68164062 C12.24068604 6.2568042 13.23527832 6.83196777 14.26000977 7.42456055 C16.31412808 8.60003491 18.36881277 9.77452012 20.42407227 10.94799805 C21.41310547 11.51357422 22.40213867 12.07915039 23.42114258 12.66186523 C28.62863844 15.61638188 33.90280395 18.44235019 39.19750977 21.23706055 C36.46301339 22.60430873 35.31149565 21.87914072 32.40844727 21.0222168 C31.46743164 20.74829102 30.52641602 20.47436523 29.55688477 20.19213867 C28.57204102 19.89758789 27.58719727 19.60303711 26.57250977 19.29956055 C25.57993164 19.00887695 24.58735352 18.71819336 23.56469727 18.41870117 C21.10699114 17.69793159 18.65146872 16.97046754 16.19750977 16.23706055 C26.58801538 20.41102434 37.0252017 24.28573518 47.67480469 27.75097656 C53.90042954 29.77893307 60.05595972 31.96730962 66.19750977 34.23706055 C69.05760916 64.65922894 69.05760916 64.65922894 64.52758789 71.90991211 C60.40787102 75.70618013 55.65327359 77.70728051 50.38012695 79.43969727 C47.25515781 80.58132469 44.86694994 82.27169602 42.19750977 84.23706055 C41.20750977 83.74206055 41.20750977 83.74206055 40.19750977 83.23706055 C41.01735352 82.50100586 41.83719727 81.76495117 42.68188477 81.0065918 C43.77060516 80.02111213 44.85913683 79.03542394 45.94750977 78.04956055 C46.48633789 77.56680664 47.02516602 77.08405273 47.58032227 76.58666992 C50.78463068 73.6754385 53.58169767 70.70999554 56.19750977 67.23706055 C54.90780273 68.34500977 54.90780273 68.34500977 53.59204102 69.4753418 C47.11926102 75.03188353 40.63657704 80.57564337 34.11279297 86.07226562 C31.20679326 88.52410605 28.31805236 90.99375559 25.44750977 93.48706055 C24.50875 94.30013672 24.50875 94.30013672 23.55102539 95.12963867 C22.34904246 96.17203272 21.14965514 97.21743028 19.95336914 98.26635742 C11.97225404 105.17832197 11.97225404 105.17832197 6.89282227 105.34643555 C5.12551758 105.16854492 5.12551758 105.16854492 3.32250977 104.98706055 C1.47592773 104.80143555 1.47592773 104.80143555 -0.40795898 104.61206055 C-2.08825195 104.42643555 -2.08825195 104.42643555 -3.80249023 104.23706055 C-4.58237305 104.19581055 -5.36225586 104.15456055 -6.16577148 104.11206055 C-7.98999023 103.98706055 -7.98999023 103.98706055 -10.80249023 103.23706055 C-14.68200915 98.71796552 -14.27566944 93.77293514 -14.31420898 88.1237793 C-14.33216019 87.15422806 -14.35011139 86.18467682 -14.36860657 85.18574524 C-14.42265072 82.09872749 -14.4565867 79.01186385 -14.48999023 75.92456055 C-14.52316847 73.82753392 -14.5576586 71.73052762 -14.59350586 69.63354492 C-14.67837402 64.50149475 -14.7452136 59.36948982 -14.80249023 54.23706055 C-12.56360486 56.47594593 -12.27609007 57.57811381 -11.51342773 60.58862305 C-11.29428711 61.4394043 -11.07514648 62.29018555 -10.84936523 63.16674805 C-10.51678711 64.50092773 -10.51678711 64.50092773 -10.17749023 65.86206055 C-9.83331055 67.2078418 -9.83331055 67.2078418 -9.48217773 68.58081055 C-8.91607096 70.79806206 -8.35645964 73.01675117 -7.80249023 75.23706055 C-8.92274083 68.91978655 -10.04384069 62.6026637 -11.16552734 56.28564453 C-11.54690735 54.13724166 -11.92809389 51.98880443 -12.30908203 49.84033203 C-12.85715528 46.74982772 -13.4059272 43.65944816 -13.95483398 40.5690918 C-14.12466293 39.61057816 -14.29449188 38.65206451 -14.46946716 37.664505 C-14.70960289 36.31367073 -14.70960289 36.31367073 -14.95458984 34.93554688 C-15.09448837 34.14722977 -15.2343869 33.35891266 -15.37852478 32.54670715 C-15.68276399 30.88929602 -16.00566014 29.23526843 -16.34059143 27.58378601 C-17.33750738 22.51884966 -17.68634604 17.96794484 -15.30249023 13.29956055 C-14.47749023 12.28893555 -13.65249023 11.27831055 -12.80249023 10.23706055 C-12.15022461 9.39401367 -11.49795898 8.5509668 -10.82592773 7.68237305 C-3.99401685 -1.0873162 -3.99401685 -1.0873162 0 0 Z " fill="#3782E7" transform="translate(96.802490234375,109.762939453125)"/>
<path d="M0 0 C2.97387106 1.15053865 5.5990411 2.43995402 8.35766602 4.0300293 C9.31084717 4.57506104 10.26402832 5.12009277 11.24609375 5.68164062 C12.24068604 6.2568042 13.23527832 6.83196777 14.26000977 7.42456055 C16.31412808 8.60003491 18.36881277 9.77452012 20.42407227 10.94799805 C21.41310547 11.51357422 22.40213867 12.07915039 23.42114258 12.66186523 C28.62863844 15.61638188 33.90280395 18.44235019 39.19750977 21.23706055 C36.53425007 22.5686904 35.65955976 21.93373465 32.86547852 21.0222168 C31.55256836 20.61011963 31.55256836 20.61011963 30.21313477 20.18969727 C29.27985352 19.89595215 28.34657227 19.60220703 27.38500977 19.29956055 C15.48012402 15.63676213 15.48012402 15.63676213 3.19750977 16.23706055 C-0.40318768 18.70301219 -0.40318768 18.70301219 -2.80249023 22.23706055 C-1.48893555 22.21385742 -0.17538086 22.1906543 1.17797852 22.16674805 C2.9136499 22.14798403 4.64932745 22.12978451 6.38500977 22.11206055 C7.24932617 22.09530273 8.11364258 22.07854492 9.00415039 22.0612793 C17.44473911 21.99660046 17.44473911 21.99660046 21.19750977 24.23706055 C22.99829102 26.18237305 22.99829102 26.18237305 24.51000977 28.36206055 C25.02176758 29.08651367 25.53352539 29.8109668 26.06079102 30.55737305 C26.4359082 31.11166992 26.81102539 31.6659668 27.19750977 32.23706055 C26.70250977 31.30893555 26.20750977 30.38081055 25.69750977 29.42456055 C24.19750977 26.23706055 24.19750977 26.23706055 24.19750977 23.23706055 C35.4755885 24.86010509 50.98444633 34.28291283 58.19750977 43.23706055 C58.19750977 44.22706055 58.19750977 45.21706055 58.19750977 46.23706055 C57.51986572 46.62337646 56.84222168 47.00969238 56.14404297 47.40771484 C52.93045949 49.24277099 49.71926975 51.08195682 46.51000977 52.92456055 C45.92792755 53.25876007 45.34584534 53.59295959 44.74612427 53.93728638 C35.52867751 59.23801954 26.43407144 64.70852687 17.43505859 70.37451172 C16.62319092 70.88473877 15.81132324 71.39496582 14.97485352 71.9206543 C13.9112561 72.59439087 13.9112561 72.59439087 12.82617188 73.28173828 C11.19750977 74.23706055 11.19750977 74.23706055 10.19750977 74.23706055 C10.26035156 73.06199951 10.32319336 71.88693848 10.38793945 70.67626953 C10.60594827 66.29588506 10.74315729 61.91597193 10.85668945 57.53173828 C10.91686406 55.63866457 10.99863734 53.74614484 11.1027832 51.85498047 C11.70165977 42.94954068 11.70165977 42.94954068 10.19750977 34.23706055 C6.67005196 30.46036588 3.08119949 28.77465587 -1.80249023 27.23706055 C-2.79249023 26.90706055 -3.78249023 26.57706055 -4.80249023 26.23706055 C-5.13249023 32.50706055 -5.46249023 38.77706055 -5.80249023 45.23706055 C-5.47249023 45.23706055 -5.14249023 45.23706055 -4.80249023 45.23706055 C-4.80249023 51.83706055 -4.80249023 58.43706055 -4.80249023 65.23706055 C-2.82249023 64.24706055 -2.82249023 64.24706055 -0.80249023 63.23706055 C-1.90177974 69.54827557 -3.38386965 75.30044639 -5.80249023 81.23706055 C-7.7663179 78.29131906 -8.06430574 77.50190615 -8.31201172 74.1862793 C-8.7856396 69.070608 -9.6853943 64.09269122 -10.65014648 59.04956055 C-11.01175139 57.11471642 -11.37307087 55.17981893 -11.73413086 53.24487305 C-12.29920073 50.2360786 -12.86675173 47.22781065 -13.43945312 44.22045898 C-13.99606838 41.28979714 -14.54250676 38.35737559 -15.08764648 35.42456055 C-15.25949966 34.53679932 -15.43135284 33.64903809 -15.6084137 32.734375 C-18.15998059 18.89547915 -18.15998059 18.89547915 -15.30249023 13.29956055 C-14.47749023 12.28893555 -13.65249023 11.27831055 -12.80249023 10.23706055 C-12.15022461 9.39401367 -11.49795898 8.5509668 -10.82592773 7.68237305 C-3.99401685 -1.0873162 -3.99401685 -1.0873162 0 0 Z " fill="#2E5CF7" transform="translate(96.802490234375,109.762939453125)"/>
<path d="M0 0 C3.05982339 0.99375757 6.07556146 2.07169149 9.09301758 3.1875 C10.2014502 3.58445068 11.30988281 3.98140137 12.4519043 4.39038086 C14.819276 5.23950727 17.18445999 6.09475364 19.54760742 6.95556641 C23.42800986 8.36611426 27.31559861 9.75491509 31.20629883 11.13671875 C37.90213771 13.51633556 44.59285159 15.90999496 51.28051758 18.3125 C54.14061698 48.73466839 54.14061698 48.73466839 49.6105957 55.98535156 C45.49087884 59.78161958 40.7362814 61.78271996 35.46313477 63.51513672 C32.33816562 64.65676415 29.94995775 66.34713547 27.28051758 68.3125 C26.29051758 67.8175 26.29051758 67.8175 25.28051758 67.3125 C26.10036133 66.57644531 26.92020508 65.84039062 27.76489258 65.08203125 C28.85361297 64.09655158 29.94214464 63.11086339 31.03051758 62.125 C31.5693457 61.64224609 32.10817383 61.15949219 32.66333008 60.66210938 C35.86763849 57.75087795 38.66470548 54.78543499 41.28051758 51.3125 C39.99081055 52.42044922 39.99081055 52.42044922 38.67504883 53.55078125 C32.20226883 59.10732298 25.71958485 64.65108282 19.19580078 70.14770508 C16.28980107 72.5995455 13.40106017 75.06919504 10.53051758 77.5625 C9.59175781 78.37557617 9.59175781 78.37557617 8.6340332 79.20507812 C7.43205027 80.24747218 6.23266295 81.29286973 5.03637695 82.34179688 C-2.94473814 89.25376142 -2.94473814 89.25376142 -8.02416992 89.421875 C-9.79147461 89.24398437 -9.79147461 89.24398437 -11.59448242 89.0625 C-13.44106445 88.876875 -13.44106445 88.876875 -15.32495117 88.6875 C-17.00524414 88.501875 -17.00524414 88.501875 -18.71948242 88.3125 C-19.49936523 88.27125 -20.27924805 88.23 -21.08276367 88.1875 C-22.90698242 88.0625 -22.90698242 88.0625 -25.71948242 87.3125 C-29.59900133 82.79340497 -29.19266163 77.84837459 -29.23120117 72.19921875 C-29.24915237 71.22966751 -29.26710358 70.26011627 -29.28559875 69.26118469 C-29.33964291 66.17416694 -29.37357889 63.0873033 -29.40698242 60 C-29.44016066 57.90297338 -29.47465079 55.80596707 -29.51049805 53.70898438 C-29.5953662 48.5769342 -29.66220579 43.44492928 -29.71948242 38.3125 C-26.76322221 41.26876021 -26.53700721 44.90553395 -25.71948242 48.875 C-25.55448242 49.64908203 -25.38948242 50.42316406 -25.21948242 51.22070312 C-23.82457948 57.7647595 -23.82457948 57.7647595 -23.25024414 60.75805664 C-22.00847295 66.95226605 -19.8461002 70.55018914 -15.71948242 75.3125 C-15.12135742 76.116875 -14.52323242 76.92125 -13.90698242 77.75 C-10.43626734 80.2290822 -6.94067255 80.64466333 -2.71948242 80.3125 C0.52917307 78.83461203 3.10918749 76.77264039 5.84301758 74.5 C6.56553711 73.93990234 7.28805664 73.37980469 8.0324707 72.80273438 C10.75160261 70.66393192 10.75160261 70.66393192 13.28051758 68.3125 C13.28051758 67.6525 13.28051758 66.9925 13.28051758 66.3125 C14.60051758 66.3125 15.92051758 66.3125 17.28051758 66.3125 C17.28051758 65.6525 17.28051758 64.9925 17.28051758 64.3125 C19.14379883 62.7265625 19.14379883 62.7265625 21.59301758 60.9375 C24.73256025 58.64224658 27.08646228 56.53612817 29.28051758 53.3125 C26.64051758 53.3125 24.00051758 53.3125 21.28051758 53.3125 C21.28051758 52.9825 21.28051758 52.6525 21.28051758 52.3125 C22.0771582 52.24933594 22.87379883 52.18617188 23.69458008 52.12109375 C31.03425365 51.38619296 31.03425365 51.38619296 36.78051758 47.1875 C38.12828071 45.32190723 38.12828071 45.32190723 39.28051758 43.3125 C39.69043945 42.64347656 40.10036133 41.97445312 40.52270508 41.28515625 C42.75277341 37.27872313 44.18930573 33.95741723 43.28051758 29.3125 C36.97517738 19.09350037 20.5480884 11.06835694 9.28051758 7.3125 C9.58086914 7.86679688 9.8812207 8.42109375 10.19067383 8.9921875 C10.57094727 9.71664062 10.9512207 10.44109375 11.34301758 11.1875 C11.72586914 11.90679687 12.1087207 12.62609375 12.50317383 13.3671875 C12.88795898 14.33011719 12.88795898 14.33011719 13.28051758 15.3125 C12.95051758 15.9725 12.62051758 16.6325 12.28051758 17.3125 C11.82161133 16.67441406 11.36270508 16.03632813 10.88989258 15.37890625 C10.27629883 14.55261719 9.66270508 13.72632813 9.03051758 12.875 C8.42723633 12.05128906 7.82395508 11.22757813 7.20239258 10.37890625 C4.20498051 7.15607905 0.98202463 7.19703074 -3.26635742 6.99609375 C-4.11069336 6.95419922 -4.9550293 6.91230469 -5.82495117 6.86914062 C-6.69764648 6.82982422 -7.5703418 6.79050781 -8.46948242 6.75 C-9.35764648 6.70681641 -10.24581055 6.66363281 -11.16088867 6.61914062 C-13.34694205 6.51336385 -15.53310331 6.41127454 -17.71948242 6.3125 C-13.97521781 -1.53262586 -8.05677278 -2.03679613 0 0 Z " fill="#358DD8" transform="translate(111.719482421875,125.6875)"/>
<path d="M0 0 C3 2 3 2 5 4 C5.33 3.01 5.66 2.02 6 1 C9.63 1 13.26 1 17 1 C16.30973291 8.77458727 15.20442922 16.42493551 13.9375 24.125 C13.75123047 25.27226562 13.56496094 26.41953125 13.37304688 27.6015625 C12.91806012 30.40148102 12.45941006 33.20080385 12 36 C8.37 36 4.74 36 1 36 C0.67 35.01 0.34 34.02 0 33 C-0.598125 33.495 -1.19625 33.99 -1.8125 34.5 C-6.50985394 36.7105195 -10.89307696 36.69116252 -16 36 C-20.20508618 33.6829117 -21.50597227 31.44974494 -23 27 C-23.90584676 19.95335484 -23.37163748 13.75215458 -19 8 C-13.35233506 2.14779186 -8.50578658 -1.27421316 0 0 Z " fill="#EEF1F7" transform="translate(279,147)"/>
<path d="M0 0 C1.08990234 -0.02900391 2.17980469 -0.05800781 3.30273438 -0.08789062 C9.58266229 -0.13757965 13.6502143 -0.10236755 18.3125 4.3125 C20.84105028 7.92675549 20.44901513 10.85689408 19.84765625 15.06640625 C18.68333466 19.95315745 16.17532317 22.66098047 12.25 25.625 C6.27315742 29.05850531 1.08572025 28.38533033 -5.6875 28.3125 C-6.6775 33.5925 -7.6675 38.8725 -8.6875 44.3125 C-12.3175 44.3125 -15.9475 44.3125 -19.6875 44.3125 C-15.83316199 18.81908669 -15.83316199 18.81908669 -14 8.25 C-13.88100342 7.5494751 -13.76200684 6.8489502 -13.6394043 6.12719727 C-12.20021622 -2.00053179 -7.37112986 0.06424576 0 0 Z " fill="#EDEFF6" transform="translate(216.6875,138.6875)"/>
<path d="M0 0 C3.63 0 7.26 0 11 0 C11.45909939 2.58319923 11.91733172 5.16654712 12.375 7.75 C12.51147949 8.51828125 12.64795898 9.2865625 12.78857422 10.078125 C13.77725214 15.66782349 14.7014164 21.26528483 15.5703125 26.875 C15.7912128 28.97552443 15.7912128 28.97552443 17 30 C21.95 20.1 26.9 10.2 32 0 C35.96 0 39.92 0 44 0 C39.15185477 9.82811315 34.17296698 19.58548555 29.125 29.3125 C28.55370361 30.41585693 27.98240723 31.51921387 27.39379883 32.65600586 C26.85392334 33.69378174 26.31404785 34.73155762 25.7578125 35.80078125 C25.2745752 36.73059814 24.79133789 37.66041504 24.29345703 38.6184082 C23 41 23 41 21 44 C17.7421875 44.29296875 17.7421875 44.29296875 13.875 44.1875 C11.95300781 44.14689453 11.95300781 44.14689453 9.9921875 44.10546875 C9.00476563 44.07066406 8.01734375 44.03585938 7 44 C5.01231882 34.24320963 3.03834213 24.4831137 1.25 14.6875 C1.12262451 14.01404541 0.99524902 13.34059082 0.86401367 12.64672852 C0.10172999 8.38552536 -0.11187509 4.32397234 0 0 Z " fill="#EEF0F7" transform="translate(381,139)"/>
<path d="M0 0 C3.96 0 7.92 0 12 0 C12.50734284 2.3736397 13.00602386 4.74857425 13.5 7.125 C13.64308594 7.79015625 13.78617187 8.4553125 13.93359375 9.140625 C14.7612283 13.16056422 15.15330658 16.89904899 15 21 C15.66 21 16.32 21 17 21 C17.12238037 20.42475586 17.24476074 19.84951172 17.37084961 19.25683594 C18.02402143 16.91383232 18.91560946 15.03013453 20.06640625 12.890625 C20.46923828 12.13652344 20.87207031 11.38242188 21.28710938 10.60546875 C21.91842773 9.43951172 21.91842773 9.43951172 22.5625 8.25 C22.98724609 7.45722656 23.41199219 6.66445312 23.84960938 5.84765625 C24.89580592 3.89632338 25.94738138 1.94787608 27 0 C30.96 0 34.92 0 39 0 C35.04982946 8.25094794 30.47046592 16.02718034 25.6875 23.8125 C24.95862184 25.00563798 24.23010472 26.1989966 23.50195312 27.39257812 C21.70386894 30.33763708 19.89965439 33.2788801 18.09320068 36.21881104 C16.9629785 38.06032038 15.83600394 39.90378941 14.70947266 41.74755859 C13.97954371 42.93981019 13.24956512 44.1320314 12.51953125 45.32421875 C11.86702393 46.39115967 11.2145166 47.45810059 10.54223633 48.55737305 C9 51 9 51 8 52 C6.14712498 52.07226502 4.29166122 52.0838122 2.4375 52.0625 C1.42558594 52.05347656 0.41367187 52.04445312 -0.62890625 52.03515625 C-1.41136719 52.02355469 -2.19382812 52.01195312 -3 52 C-1.23454156 47.06028296 1.53073284 43.17483961 4.5390625 38.9140625 C8.11554409 31.78022489 4.95526971 24.14120499 3 16.875 C2.43200491 14.74885623 1.86930143 12.62129011 1.3125 10.4921875 C0.93544922 9.09009033 0.93544922 9.09009033 0.55078125 7.65966797 C0 5 0 5 0 0 Z " fill="#EDEFF6" transform="translate(301,148)"/>
<path d="M0 0 C-0.14415332 8.93750572 -3.74401567 14.13446293 -9.52734375 20.74609375 C-11.77132919 22.65675509 -14.13983396 22.68220377 -17 23 C-16.34 23.33 -15.68 23.66 -15 24 C-17.3016756 29.30436915 -21.7495815 33.60347873 -27.08203125 35.89453125 C-29 36.4375 -29 36.4375 -32 37 C-32 37.66 -32 38.32 -32 39 C-34.10171867 39.8394882 -36.20646625 40.67139656 -38.3125 41.5 C-39.48425781 41.9640625 -40.65601562 42.428125 -41.86328125 42.90625 C-45 44 -45 44 -48 44 C-48.495 36.575 -48.495 36.575 -49 29 C-37.61665107 21.64264247 -26.06600781 14.60469132 -14.375 7.75 C-13.39148056 7.17199142 -13.39148056 7.17199142 -12.38809204 6.58230591 C-10.51815062 5.48438095 -8.64624956 4.38989463 -6.7734375 3.296875 C-5.68466309 2.66104492 -4.59588867 2.02521484 -3.47412109 1.37011719 C-1 0 -1 0 0 0 Z " fill="#5A77F6" transform="translate(156,155)"/>
<path d="M0 0 C6.25666361 2.08555454 11.6217868 4.83582448 17.39624023 7.9675293 C19.18921963 8.93843118 20.98779285 9.89832563 22.78710938 10.85742188 C23.92341797 11.47037109 25.05972656 12.08332031 26.23046875 12.71484375 C27.78350708 13.55196899 27.78350708 13.55196899 29.36791992 14.40600586 C31.63630007 15.77974243 33.26117715 17.02421736 35 19 C26.37866534 24.41476196 17.73900027 29.79899596 9.0625 35.125 C7.88228271 35.8526355 7.88228271 35.8526355 6.67822266 36.5949707 C5.95038574 37.0405835 5.22254883 37.48619629 4.47265625 37.9453125 C3.50211304 38.54110107 3.50211304 38.54110107 2.51196289 39.14892578 C1 40 1 40 0 40 C0 26.8 0 13.6 0 0 Z " fill="#060C35" transform="translate(107,144)"/>
<path d="M0 0 C11.55 0 23.1 0 35 0 C34.67 2.64 34.34 5.28 34 8 C30.04 8 26.08 8 22 8 C20.02 19.88 18.04 31.76 16 44 C12.37 44 8.74 44 5 44 C5.39732983 35.75540596 6.44872417 27.91107237 8 19.8125 C8.17821289 18.87962158 8.35642578 17.94674316 8.54003906 16.9855957 C9.86050378 10.27899245 9.86050378 10.27899245 11 8 C7.37 8 3.74 8 0 8 C0 5.36 0 2.72 0 0 Z " fill="#EEF0F7" transform="translate(343,139)"/>
<path d="M0 0 C3.05982339 0.99375757 6.07556146 2.07169149 9.09301758 3.1875 C10.7556665 3.78292603 10.7556665 3.78292603 12.4519043 4.39038086 C14.819276 5.23950727 17.18445999 6.09475364 19.54760742 6.95556641 C23.42800986 8.36611426 27.31559861 9.75491509 31.20629883 11.13671875 C37.90213771 13.51633556 44.59285159 15.90999496 51.28051758 18.3125 C51.42711298 21.97873812 51.51501631 25.644212 51.59301758 29.3125 C51.63491211 30.34246094 51.67680664 31.37242187 51.7199707 32.43359375 C51.83187598 39.46124514 50.75420008 43.82505179 46.28051758 49.3125 C46.28051758 46.3125 46.28051758 46.3125 47.28051758 44.3125 C47.50673839 42.60886178 47.68940231 40.89921299 47.84301758 39.1875 C47.96870117 37.82238281 47.96870117 37.82238281 48.09692383 36.4296875 C48.15750977 35.73101562 48.2180957 35.03234375 48.28051758 34.3125 C47.62051758 34.3125 46.96051758 34.3125 46.28051758 34.3125 C46.18770508 35.5190625 46.18770508 35.5190625 46.09301758 36.75 C45.01730418 41.46658951 42.77710351 46.81591407 39.28051758 50.3125 C37.61434643 50.35313832 35.94663663 50.355221 34.28051758 50.3125 C34.67883789 49.73242188 35.0771582 49.15234375 35.48754883 48.5546875 C42.03292848 39.73951861 42.03292848 39.73951861 43.28051758 29.3125 C36.97517738 19.09350037 20.5480884 11.06835694 9.28051758 7.3125 C9.58086914 7.86679688 9.8812207 8.42109375 10.19067383 8.9921875 C10.57094727 9.71664062 10.9512207 10.44109375 11.34301758 11.1875 C11.72586914 11.90679687 12.1087207 12.62609375 12.50317383 13.3671875 C12.88795898 14.33011719 12.88795898 14.33011719 13.28051758 15.3125 C12.95051758 15.9725 12.62051758 16.6325 12.28051758 17.3125 C11.82161133 16.67441406 11.36270508 16.03632813 10.88989258 15.37890625 C10.27629883 14.55261719 9.66270508 13.72632813 9.03051758 12.875 C8.42723633 12.05128906 7.82395508 11.22757813 7.20239258 10.37890625 C4.20498051 7.15607905 0.98202463 7.19703074 -3.26635742 6.99609375 C-4.11069336 6.95419922 -4.9550293 6.91230469 -5.82495117 6.86914062 C-6.69764648 6.82982422 -7.5703418 6.79050781 -8.46948242 6.75 C-9.80172852 6.68522461 -9.80172852 6.68522461 -11.16088867 6.61914062 C-13.34694205 6.51336385 -15.53310331 6.41127454 -17.71948242 6.3125 C-13.97521781 -1.53262586 -8.05677278 -2.03679613 0 0 Z " fill="#3187DC" transform="translate(111.719482421875,125.6875)"/>
<path d="M0 0 C4.86297434 1.95165933 9.3354761 4.47443084 13.8984375 7.0390625 C14.82527344 7.5546875 15.75210938 8.0703125 16.70703125 8.6015625 C18.98173175 9.86789061 21.25372542 11.13882175 23.5234375 12.4140625 C19.50190933 13.60453523 16.80666851 13.00641825 12.7109375 12.0390625 C3.50795889 9.21779336 3.50795889 9.21779336 -5.3515625 11.1015625 C-8.49718751 12.99850797 -8.49718751 12.99850797 -9.1640625 15.1875 C-10.46507836 24.45723803 -9.32602531 34.14581648 -8.4765625 43.4140625 C-7.8165625 43.4140625 -7.1565625 43.4140625 -6.4765625 43.4140625 C-4.4765625 45.4140625 -4.4765625 45.4140625 -4.24951172 47.47705078 C-4.26522217 48.71817627 -4.26522217 48.71817627 -4.28125 49.984375 C-4.29091797 51.32822266 -4.29091797 51.32822266 -4.30078125 52.69921875 C-4.31753906 53.63636719 -4.33429688 54.57351562 -4.3515625 55.5390625 C-4.36058594 56.48394531 -4.36960937 57.42882812 -4.37890625 58.40234375 C-4.40251728 60.73983542 -4.43544734 63.07682373 -4.4765625 65.4140625 C-2.4965625 64.4240625 -2.4965625 64.4240625 -0.4765625 63.4140625 C-1.575852 69.72527753 -3.05794192 75.47744834 -5.4765625 81.4140625 C-7.44039016 78.46832101 -7.73837801 77.6789081 -7.98608398 74.36328125 C-8.45971186 69.24760995 -9.35946657 64.26969318 -10.32421875 59.2265625 C-10.68582365 57.29171837 -11.04714314 55.35682089 -11.40820312 53.421875 C-11.97327299 50.41308056 -12.54082399 47.40481261 -13.11352539 44.39746094 C-13.67014065 41.46679909 -14.21657903 38.53437754 -14.76171875 35.6015625 C-14.93357193 34.71380127 -15.10542511 33.82604004 -15.28248596 32.91137695 C-17.83405285 19.0724811 -17.83405285 19.0724811 -14.9765625 13.4765625 C-14.1515625 12.4659375 -13.3265625 11.4553125 -12.4765625 10.4140625 C-11.82429688 9.57101563 -11.17203125 8.72796875 -10.5 7.859375 C-3.69602557 -0.874454 -3.69602557 -0.874454 0 0 Z " fill="#2C70E4" transform="translate(96.4765625,109.5859375)"/>
<path d="M0 0 C2.83203125 0.03255208 5.6640625 0.06510417 8.49609375 0.09765625 C6.97343922 10.40337244 5.19776971 20.65492376 3.37109375 30.91015625 C3.09101089 32.48890836 2.81106216 34.06768427 2.53125 35.64648438 C1.85440582 39.46381699 1.17576386 43.28082582 0.49609375 47.09765625 C-3.13390625 47.09765625 -6.76390625 47.09765625 -10.50390625 47.09765625 C-9.91214562 37.82920531 -8.56576335 28.8462022 -6.91992188 19.72094727 C-6.49794501 17.37704409 -6.08634868 15.03147275 -5.67578125 12.68554688 C-5.41075824 11.19390333 -5.14515557 9.70236264 -4.87890625 8.2109375 C-4.75596191 7.51003494 -4.63301758 6.80913239 -4.50634766 6.08699036 C-3.42284979 0.13349648 -3.42284979 0.13349648 0 0 Z " fill="#EAEDF4" transform="translate(247.50390625,135.90234375)"/>
<path d="M0 0 C0.33 0 0.66 0 1 0 C1.28982156 4.7462134 1.57440017 9.49270442 1.85449219 14.23950195 C1.95011886 15.84830844 2.04708382 17.45703605 2.14550781 19.06567383 C2.7359351 28.73241455 3.11306833 38.31145783 3 48 C9.93 45.525 9.93 45.525 17 43 C16.34 42.34 15.68 41.68 15 41 C19.455 40.505 19.455 40.505 24 40 C20.16988312 43.99092331 16.13200976 47.50147721 11.75 50.875 C11.13253906 51.38546875 10.51507813 51.8959375 9.87890625 52.421875 C6.29933737 55.15268013 3.85135591 56.38309972 -0.71484375 56.04296875 C-6.58575618 54.9599971 -9.46601655 51.61336753 -13 47 C-15.88355244 42.52465994 -17.46582906 38.34170938 -18 33 C-15.21435052 34.39282474 -15.1510515 35.91666043 -14.125 38.8125 C-12.10266175 44.1672519 -12.10266175 44.1672519 -8 48 C-4.832168 48.33448259 -4.832168 48.33448259 -2 48 C-2.7425 46.2984375 -2.7425 46.2984375 -3.5 44.5625 C-8.0631165 30.69931749 -4.72519105 13.3743451 0 0 Z " fill="#4AA6EA" transform="translate(105,151)"/>
<path d="M0 0 C0.99 0 1.98 0 3 0 C3 41.25 3 82.5 3 125 C2.01 125 1.02 125 0 125 C0 83.75 0 42.5 0 0 Z " fill="#E0E2EB" transform="translate(177,98)"/>
<path d="M0 0 C4.86297434 1.95165933 9.3354761 4.47443084 13.8984375 7.0390625 C14.82527344 7.5546875 15.75210938 8.0703125 16.70703125 8.6015625 C18.98173175 9.86789061 21.25372542 11.13882175 23.5234375 12.4140625 C19.50190933 13.60453523 16.80666851 13.00641825 12.7109375 12.0390625 C3.60889802 9.27719932 3.60889802 9.27719932 -5.2890625 10.7890625 C-7.54223867 12.22244466 -8.34409307 13.0605984 -9.2890625 15.58203125 C-9.81613956 17.95334995 -9.81613956 17.95334995 -10.08984375 20.29296875 C-10.4765625 22.4140625 -10.4765625 22.4140625 -12.4765625 25.4140625 C-13.1365625 25.4140625 -13.7965625 25.4140625 -14.4765625 25.4140625 C-14.4765625 27.0640625 -14.4765625 28.7140625 -14.4765625 30.4140625 C-14.8065625 30.4140625 -15.1365625 30.4140625 -15.4765625 30.4140625 C-16.94801363 24.71218937 -17.70364894 18.81710678 -14.9765625 13.4765625 C-14.1515625 12.4659375 -13.3265625 11.4553125 -12.4765625 10.4140625 C-11.82429688 9.57101563 -11.17203125 8.72796875 -10.5 7.859375 C-3.69602557 -0.874454 -3.69602557 -0.874454 0 0 Z " fill="#257BD5" transform="translate(96.4765625,109.5859375)"/>
<path d="M0 0 C0.5 2.5 0.5 2.5 0 6 C-6.67414769 15.354748 -16.89731086 18.74880394 -27.3125 22.3125 C-28.08964355 22.57949707 -28.86678711 22.84649414 -29.66748047 23.12158203 C-33.55165566 24.39727114 -36.85500749 25.35575784 -41 25 C-38.16999641 21.95741592 -35.38023067 19.85778493 -31.78125 17.79296875 C-30.76546875 17.20580078 -29.7496875 16.61863281 -28.703125 16.01367188 C-27.64609375 15.41103516 -26.5890625 14.80839844 -25.5 14.1875 C-24.47390625 13.59646484 -23.4478125 13.00542969 -22.390625 12.39648438 C-20.31932551 11.20340546 -18.24640754 10.01313195 -16.171875 8.82568359 C-11.85678384 6.34198195 -7.56918456 3.81210999 -3.28320312 1.27856445 C-1 0 -1 0 0 0 Z " fill="#6359FB" transform="translate(156,155)"/>
<path d="M0 0 C6.95240556 2.48926824 12.09987296 6.55575988 17.6015625 11.38671875 C18.519375 12.17175781 19.4371875 12.95679688 20.3828125 13.765625 C27.92647027 20.34464837 27.92647027 20.34464837 29.6015625 24.38671875 C26.1458001 23.06781945 22.92741819 21.5595201 19.6875 19.77734375 C18.76066406 19.26945312 17.83382812 18.7615625 16.87890625 18.23828125 C15.92113281 17.70976562 14.96335937 17.18125 13.9765625 16.63671875 C12.57470703 15.86714844 12.57470703 15.86714844 11.14453125 15.08203125 C9.25443565 14.04443394 7.36478784 13.0060205 5.47558594 11.96679688 C2.53221321 10.34859196 -0.41258311 8.73306432 -3.359375 7.12109375 C-4.23126465 6.64381836 -5.1031543 6.16654297 -6.00146484 5.67480469 C-8.11615933 4.53840948 -10.24454683 3.44650037 -12.3984375 2.38671875 C-12.3984375 1.72671875 -12.3984375 1.06671875 -12.3984375 0.38671875 C-8.45077959 -1.58711021 -4.15448035 -1.06230198 0 0 Z " fill="#223DFB" transform="translate(105.3984375,133.61328125)"/>
<path d="M0 0 C11.27807873 1.62304454 26.78693656 11.04585228 34 20 C34 20.99 34 21.98 34 23 C31.79797496 24.38646021 30.30563739 24.99173953 27.6875 25.0625 C24.92175804 23.96906713 24.14210704 23.24758109 22.1875 21.125 C17.89950718 16.51157916 12.74507524 13.25729455 7.51049805 9.82080078 C6.83027588 9.36946777 6.15005371 8.91813477 5.44921875 8.453125 C4.83393311 8.05254883 4.21864746 7.65197266 3.5847168 7.23925781 C2 6 2 6 0 3 C0 2.01 0 1.02 0 0 Z " fill="#346AF6" transform="translate(121,133)"/>
<path d="M0 0 C3.29501871 1.28322921 6.58537967 2.57800099 9.875 3.875 C10.81214844 4.23980469 11.74929687 4.60460937 12.71484375 4.98046875 C13.61074219 5.33496094 14.50664062 5.68945312 15.4296875 6.0546875 C16.25710449 6.37937012 17.08452148 6.70405273 17.93701172 7.03857422 C20 8 20 8 22 10 C22.28230331 12.59719047 22.42811185 15.02448209 22.4375 17.625 C22.44330078 18.7078125 22.44330078 18.7078125 22.44921875 19.8125 C22.31874874 25.83586553 20.90701176 29.31158589 17 34 C17 31 17 31 18 29 C18.22622081 27.29636178 18.40888473 25.58671299 18.5625 23.875 C18.64628906 22.96492188 18.73007813 22.05484375 18.81640625 21.1171875 C18.90728516 20.06917969 18.90728516 20.06917969 19 19 C18.34 19 17.68 19 17 19 C16.9071875 20.2065625 16.9071875 20.2065625 16.8125 21.4375 C15.7367866 26.15408951 13.49658593 31.50341407 10 35 C8.33382885 35.04063832 6.66611905 35.042721 5 35 C5.59748047 34.12988281 5.59748047 34.12988281 6.20703125 33.2421875 C12.7524109 24.42701861 12.7524109 24.42701861 14 14 C10.78695218 9.02495821 6.81912742 6.34700718 1.79296875 3.296875 C1.20128906 2.86890625 0.60960937 2.4409375 0 2 C0 1.34 0 0.68 0 0 Z " fill="#3F8AED" transform="translate(141,141)"/>
<path d="M0 0 C1.71875 1.2421875 1.71875 1.2421875 3 3 C3.51984046 6.8026686 2.99378317 10.52428184 0.83203125 13.734375 C-2.00206548 16.43930378 -3.864735 16.99774558 -7.75 17.0625 C-11 16 -11 16 -12.4375 14.3125 C-13.16461331 11.32325638 -13.37606104 9.07116515 -13 6 C-9.2239128 0.33586921 -6.75047404 -0.47371748 0 0 Z " fill="#0D1237" transform="translate(280,157)"/>
<path d="M0 0 C3.81583379 0.65179251 6.02881405 1.46898975 9 4 C8.79503906 4.58007812 8.59007813 5.16015625 8.37890625 5.7578125 C8.10949219 6.53898438 7.84007813 7.32015625 7.5625 8.125 C7.29566406 8.89070312 7.02882813 9.65640625 6.75390625 10.4453125 C4.92984074 16.62634278 4.74627718 22.85385861 4.65820312 29.25390625 C4.51254154 32.83785884 4.26372664 34.67828375 1.95703125 37.4921875 C1.31121094 37.98976562 0.66539063 38.48734375 0 39 C-0.82351864 32.61773055 -1.12086218 26.43255401 -1 20 C-1.33 20 -1.66 20 -2 20 C-2.22731216 13.06697907 -1.42002108 6.7831364 0 0 Z " fill="#3777F2" transform="translate(92,136)"/>
<path d="M0 0 C2.78564948 1.39282474 2.8489485 2.91666043 3.875 5.8125 C5.89733825 11.1672519 5.89733825 11.1672519 10 15 C13.167832 15.33448259 13.167832 15.33448259 16 15 C16.33 14.34 16.66 13.68 17 13 C17.66 13.66 18.32 14.32 19 15 C19.33 10.71 19.66 6.42 20 2 C20.33 2 20.66 2 21 2 C21 6.29 21 10.58 21 15 C25.62 13.35 30.24 11.7 35 10 C34.34 9.34 33.68 8.68 33 8 C37.455 7.505 37.455 7.505 42 7 C38.16988312 10.99092331 34.13200976 14.50147721 29.75 17.875 C29.13253906 18.38546875 28.51507813 18.8959375 27.87890625 19.421875 C24.29933737 22.15268013 21.85135591 23.38309972 17.28515625 23.04296875 C11.41424382 21.9599971 8.53398345 18.61336753 5 14 C2.11644756 9.52465994 0.53417094 5.34170938 0 0 Z " fill="#4F92ED" transform="translate(87,184)"/>
<path d="M0 0 C2.31 0.33 4.62 0.66 7 1 C-0.7944185 8.87822945 -9.03913081 16.16360621 -17.6875 23.08984375 C-19.95667612 24.87721054 -19.95667612 24.87721054 -21.5625 26.69140625 C-24.60491546 29.46099641 -28.3283217 29.11410103 -32.25 29.0625 C-33.14203125 29.05347656 -34.0340625 29.04445312 -34.953125 29.03515625 C-35.62859375 29.02355469 -36.3040625 29.01195312 -37 29 C-37 28.67 -37 28.34 -37 28 C-35.99839844 27.7834375 -34.99679688 27.566875 -33.96484375 27.34375 C-29.40338412 26.03817728 -26.18973087 23.47087481 -22.5625 20.5 C-21.92634766 20.00113281 -21.29019531 19.50226563 -20.63476562 18.98828125 C-19.04421838 17.71379334 -17.51590457 16.36242186 -16 15 C-16 14.34 -16 13.68 -16 13 C-14.68 13 -13.36 13 -12 13 C-12 12.34 -12 11.68 -12 11 C-10.13671875 9.4140625 -10.13671875 9.4140625 -7.6875 7.625 C-4.54795733 5.32974658 -2.1940553 3.22362817 0 0 Z " fill="#408CDF" transform="translate(141,179)"/>
<path d="M0 0 C0.82338867 0.14606689 1.64677734 0.29213379 2.49511719 0.44262695 C4.1100479 0.73137349 5.72449063 1.02286558 7.33837891 1.31738281 C8.93201503 1.59837285 10.53326841 1.83656256 12.13671875 2.0546875 C19.6621818 3.23009316 26.04404368 7.77685104 32.4375 11.6875 C29.73795802 13.03727099 28.68586574 12.36286546 25.82421875 11.5078125 C24.90576172 11.23839844 23.98730469 10.96898437 23.04101562 10.69140625 C22.07873047 10.40136719 21.11644531 10.11132812 20.125 9.8125 C18.2335934 9.25084841 16.34168091 8.69089708 14.44921875 8.1328125 C13.60834717 7.88031738 12.76747559 7.62782227 11.90112305 7.36767578 C9.42798033 6.68487174 6.95853163 6.15978883 4.4375 5.6875 C4.4375 5.0275 4.4375 4.3675 4.4375 3.6875 C-3.52381537 3.8511906 -8.89985501 5.35311996 -15.5625 9.6875 C-16.5525 10.1825 -16.5525 10.1825 -17.5625 10.6875 C-17.4375 7.4375 -17.4375 7.4375 -16.5625 3.6875 C-10.55469903 -1.169871 -7.33730655 -1.31107086 0 0 Z " fill="#2768E9" transform="translate(103.5625,119.3125)"/>
<path d="M0 0 C6.8359375 -0.1953125 6.8359375 -0.1953125 9 0 C11 2 11 2 11.3125 4.9375 C11 8 11 8 9.7734375 9.6796875 C7.47752375 11.38898011 6.14141288 11.31049621 3.3125 11.1875 C1.889375 11.125625 0.46625 11.06375 -1 11 C-0.67 7.37 -0.34 3.74 0 0 Z " fill="#0E1338" transform="translate(214,147)"/>
<path d="M0 0 C0.33 0 0.66 0 1 0 C1.3383344 2.37438249 1.67079002 4.74934959 2 7.125 C2.09539062 7.79015625 2.19078125 8.4553125 2.2890625 9.140625 C2.83611453 13.12628981 3.10022182 16.97859938 3 21 C3.66 21.33 4.32 21.66 5 22 C3.68 24.64 2.36 27.28 1 30 C0.67 30 0.34 30 0 30 C-1.91281635 20.92550815 -3.5338079 12.33175289 -3 3 C-2.34 3 -1.68 3 -1 3 C-0.67 2.01 -0.34 1.02 0 0 Z " fill="#2968E5" transform="translate(85,132)"/>
<path d="M0 0 C4.93050236 1.64350079 7.89251684 3.06608346 12 6 C10.95505436 9.25094199 9.40864509 10.56873286 6.5625 12.25 C3 14 3 14 0 14 C0 9.38 0 4.76 0 0 Z " fill="#397DE5" transform="translate(116,155)"/>
<path d="M0 0 C11.40119982 1.64076307 26.60706996 11.07749822 34 20 C34 20.66 34 21.32 34 22 C30.11086736 21.4238322 27.98945016 19.43876197 25 17 C24.34 17 23.68 17 23 17 C22.690625 15.824375 22.690625 15.824375 22.375 14.625 C21.25280416 11.76684206 21.25280416 11.76684206 18.4375 11.0625 C17.303125 10.711875 16.16875 10.36125 15 10 C12.65148133 8.52657927 10.40072532 6.95595904 8.1484375 5.33984375 C6.05475026 4.03414425 4.40956464 3.4415718 2 3 C1.67 3.66 1.34 4.32 1 5 C0.67 3.35 0.34 1.7 0 0 Z " fill="#3677F1" transform="translate(121,133)"/>
<path d="M0 0 C0.99 0.33 1.98 0.66 3 1 C3.90705324 8.86112806 0.88433064 14.27505083 -3 21 C-4 22 -4 22 -6.5625 22.0625 C-7.366875 22.041875 -8.17125 22.02125 -9 22 C-8.60167969 21.41992188 -8.20335937 20.83984375 -7.79296875 20.2421875 C-1.3385869 10.9831426 -1.3385869 10.9831426 0 0 Z " fill="#4680E8" transform="translate(155,154)"/>
<path d="M0 0 C4 5.37142857 4 5.37142857 4 8 C-1.76044212 7.39363767 -6.72014369 5.24341721 -12 3 C-8.62803192 -0.37196808 -4.5120049 -1.50400163 0 0 Z " fill="#192DC1" transform="translate(156,132)"/>
<path d="M0 0 C1.41687119 4.25061356 0.19320039 6.71851625 -1 11 C-4.63 11 -8.26 11 -12 11 C-8.19588166 7.08060535 -4.18423892 3.50897269 0 0 Z " fill="#1F3CE7" transform="translate(130,199)"/>
<path d="M0 0 C0.66 0 1.32 0 2 0 C2.66 5.28 3.32 10.56 4 16 C1.36 14.02 -1.28 12.04 -4 10 C-2.8905928 6.51329166 -1.73662334 3.22515763 0 0 Z " fill="#1C33DA" transform="translate(77,138)"/>
<path d="M0 0 C0.67224609 -0.02900391 1.34449219 -0.05800781 2.03710938 -0.08789062 C4.00390625 -0.11328125 4.00390625 -0.11328125 7.4375 0.3125 C8.4275 1.6325 9.4175 2.9525 10.4375 4.3125 C3.1775 3.9825 -4.0825 3.6525 -11.5625 3.3125 C-11.5625 2.6525 -11.5625 1.9925 -11.5625 1.3125 C-7.736077 0.10879148 -3.99078302 0.07412011 0 0 Z " fill="#2F78E8" transform="translate(105.5625,128.6875)"/>
<path d="M0 0 C1.68550367 3.37100733 -0.31136964 6.72014632 -1.4375 10.125 C-1.68048828 10.87910156 -1.92347656 11.63320312 -2.17382812 12.41015625 C-2.77595819 14.27557879 -3.38713463 16.13807683 -4 18 C-6.09991805 14.85012292 -6.52439456 12.89663297 -6.46875 9.140625 C-5.61073793 5.22236988 -2.83156994 2.69673328 0 0 Z " fill="#277ED0" transform="translate(95,173)"/>
<path d="M0 0 C0.66 0.33 1.32 0.66 2 1 C-1.24571282 6.7858359 -5.6654873 10.14729638 -11 14 C-11 9.95136013 -9.70680732 8.98442858 -7 6 C-4.72143146 3.93123542 -2.38262895 1.94759838 0 0 Z " fill="#08103D" transform="translate(130,195)"/>
<path d="M0 0 C0 3 0 3 -1.4375 4.5 C-1.953125 4.995 -2.46875 5.49 -3 6 C-3.33 6.99 -3.66 7.98 -4 9 C-5.77734375 10.421875 -5.77734375 10.421875 -7.9375 11.75 C-8.64777344 12.19859375 -9.35804688 12.6471875 -10.08984375 13.109375 C-10.72019531 13.40328125 -11.35054687 13.6971875 -12 14 C-12.66 13.67 -13.32 13.34 -14 13 C-13.15695313 12.22914063 -12.31390625 11.45828125 -11.4453125 10.6640625 C-10.33851968 9.65106568 -9.23175006 8.63804353 -8.125 7.625 C-7.56941406 7.11710938 -7.01382813 6.60921875 -6.44140625 6.0859375 C-4.25988219 4.0883974 -2.09183907 2.09183907 0 0 Z " fill="#347DD3" transform="translate(151,180)"/>
<path d="M0 0 C0.66 0 1.32 0 2 0 C3.18823797 3.56471391 3.26274852 6.2558336 3 10 C2.01 11.32 1.02 12.64 0 14 C0 9.38 0 4.76 0 0 Z " fill="#2245EB" transform="translate(116,155)"/>
<path d="M0 0 C1.65 0 3.3 0 5 0 C5.66 1.32 6.32 2.64 7 4 C3.25 7 3.25 7 1 7 C0.67 4.69 0.34 2.38 0 0 Z " fill="#4296E4" transform="translate(121,159)"/>
<path d="M0 0 C0.66 0.33 1.32 0.66 2 1 C1.01 2.485 1.01 2.485 0 4 C1.32 4.99 2.64 5.98 4 7 C0.37 7 -3.26 7 -7 7 C-4.66666667 4.66666667 -2.33333333 2.33333333 0 0 Z " fill="#1A2FC9" transform="translate(125,203)"/>
<path d="M0 0 C2.49505962 2.49505962 2.35948376 3.67328888 2.625 7.125 C2.69976562 8.03507813 2.77453125 8.94515625 2.8515625 9.8828125 C2.92503906 10.93082031 2.92503906 10.93082031 3 12 C2.01 12 1.02 12 0 12 C0 8.04 0 4.08 0 0 Z " fill="#346DB5" transform="translate(82,164)"/>
<path d="M0 0 C0.33 0 0.66 0 1 0 C1 1.98 1 3.96 1 6 C-2.96 7.98 -2.96 7.98 -7 10 C-4.9716169 5.94323381 -2.9786858 3.3605686 0 0 Z " fill="#2F8AD4" transform="translate(162,173)"/>
<path d="M0 0 C-0.66 1.32 -1.32 2.64 -2 4 C-4.875 4.125 -4.875 4.125 -8 4 C-8.66 3.34 -9.32 2.68 -10 2 C-3.375 0 -3.375 0 0 0 Z " fill="#203EE6" transform="translate(154,132)"/>
<path d="M0 0 C4.4785979 -0.17563129 8.02584132 -0.22085338 12 2 C12.33 2.99 12.66 3.98 13 5 C11.58208592 4.54554036 10.16571954 4.08625056 8.75 3.625 C7.96109375 3.36976563 7.1721875 3.11453125 6.359375 2.8515625 C4.13372042 2.04826333 2.09068328 1.10288338 0 0 Z " fill="#336BF4" transform="translate(106,132)"/>
<path d="M0 0 C0.33 0 0.66 0 1 0 C1.33 5.94 1.66 11.88 2 18 C-1 15 -1 15 -1.07421875 11.42578125 C-0.96149977 10.05326192 -0.83199844 8.68203828 -0.6875 7.3125 C-0.62626953 6.61060547 -0.56503906 5.90871094 -0.50195312 5.18554688 C-0.34897376 3.4557033 -0.17637398 1.72761503 0 0 Z " fill="#408EEF" transform="translate(99,176)"/>
<path d="M0 0 C1.93956814 0.255602 3.87665989 0.53004646 5.8125 0.8125 C7.43091797 1.03873047 7.43091797 1.03873047 9.08203125 1.26953125 C12.06440991 2.01612403 13.14223479 2.62075684 15 5 C12.87439563 4.69163768 10.74952935 4.37818386 8.625 4.0625 C6.84996094 3.80146484 6.84996094 3.80146484 5.0390625 3.53515625 C2 3 2 3 0 2 C0 1.34 0 0.68 0 0 Z " fill="#2852E4" transform="translate(108,123)"/>
<path d="M0 0 C4.55737263 0.43820891 7.57653445 0.85041169 11 4 C3.57142857 3 3.57142857 3 0 2 C0 1.34 0 0.68 0 0 Z " fill="#2670DA" transform="translate(109,119)"/>
<path d="M0 0 C4.22305057 0.96778242 5.87851059 1.87851059 9 5 C3.06 3.515 3.06 3.515 -3 2 C-2.01 1.34 -1.02 0.68 0 0 Z " fill="#2351C1" transform="translate(127,127)"/>
<path d="M0 0 C0.66 0 1.32 0 2 0 C1.45276317 3.37462715 0.9451 5.08235 -1 8 C-1.66 8 -2.32 8 -3 8 C-1.125 2.25 -1.125 2.25 0 0 Z " fill="#192DC2" transform="translate(77,138)"/>
<path d="M0 0 C2.475 0.495 2.475 0.495 5 1 C5.33 2.65 5.66 4.3 6 6 C3.97945196 4.35830472 1.97956942 2.69088222 0 1 C0 0.67 0 0.34 0 0 Z " fill="#2143F0" transform="translate(75,148)"/>
<path d="M0 0 C0.66 0 1.32 0 2 0 C2 2.31 2 4.62 2 7 C-0.97 6.505 -0.97 6.505 -4 6 C-3.34 5.566875 -2.68 5.13375 -2 4.6875 C-1.01 3.8521875 -1.01 3.8521875 0 3 C0 2.01 0 1.02 0 0 Z " fill="#1C32D7" transform="translate(153,131)"/>
</svg>
